HIERARCHY
ROOT Hips
{
	OFFSET 15.585500 22.159004 44.358299
	CHANNELS 6 Xposition Yposition Zposition Zrotation Xrotation Yrotation
	JOINT Chest
	{
		OFFSET -0.128500 0.160400 6.566002
		CHANNELS 6 Xposition Yposition Zposition Zrotation Xrotation Yrotation
		JOINT Chest2
		{
			OFFSET 0.000000 0.000000 3.554802
			CHANNELS 6 Xposition Yposition Zposition Zrotation Xrotation Yrotation
			JOINT Neck
			{
				OFFSET 0.000000 0.000000 8.267998
				CHANNELS 6 Xposition Yposition Zposition Zrotation Xrotation Yrotation
				JOINT Head
				{
					OFFSET 0.000000 0.000002 2.173897
					CHANNELS 6 Xposition Yposition Zposition Zrotation Xrotation Yrotation
					End Site
					{
						OFFSET 0.000000 0.000000 7.718697
					}
				}
			}
			JOINT LeftCollar
			{
				OFFSET 2.057500 0.117599 5.946301
				CHANNELS 6 Xposition Yposition Zposition Zrotation Xrotation Yrotation
				JOINT LeftShoulder
				{
					OFFSET 4.957699 0.000000 0.000000
					CHANNELS 6 Xposition Yposition Zposition Zrotation Xrotation Yrotation
					JOINT LeftElbow
					{
						OFFSET 0.000000 0.000000 -8.465500
						CHANNELS 6 Xposition Yposition Zposition Zrotation Xrotation Yrotation
						JOINT LeftWrist
						{
							OFFSET 0.000000 -0.000002 -14.594898
							CHANNELS 6 Xposition Yposition Zposition Zrotation Xrotation Yrotation
							End Site
							{
								OFFSET 0.000000 0.000000 -2.173901
							}
						}
					}
				}
			}
			JOINT RightCollar
			{
				OFFSET -3.048500 -0.728800 6.604099
				CHANNELS 6 Xposition Yposition Zposition Zrotation Xrotation Yrotation
				JOINT RightShoulder
				{
					OFFSET -3.710299 0.000000 0.000000
					CHANNELS 6 Xposition Yposition Zposition Zrotation Xrotation Yrotation
					JOINT RightElbow
					{
						OFFSET 0.000000 0.000000 -10.450901
						CHANNELS 6 Xposition Yposition Zposition Zrotation Xrotation Yrotation
						JOINT RightWrist
						{
							OFFSET 0.000000 0.000000 -12.539200
							CHANNELS 6 Xposition Yposition Zposition Zrotation Xrotation Yrotation
							End Site
							{
								OFFSET 0.000000 -0.000002 -2.173901
							}
						}
					}
				}
			}
		}
	}
	JOINT LeftHip
	{
		OFFSET 2.442599 -0.601400 -2.767502
		CHANNELS 6 Xposition Yposition Zposition Zrotation Xrotation Yrotation
		JOINT LeftKnee
		{
			OFFSET 0.000000 -0.000002 -17.033703
			CHANNELS 6 Xposition Yposition Zposition Zrotation Xrotation Yrotation
			JOINT LeftAnkle
			{
				OFFSET 0.000000 -0.000002 -19.318800
				CHANNELS 6 Xposition Yposition Zposition Zrotation Xrotation Yrotation
				End Site
				{
					OFFSET 0.000000 -8.281900 0.000000
				}
			}
		}
	}
	JOINT RightHip
	{
		OFFSET -3.126200 -0.601400 -2.283501
		CHANNELS 6 Xposition Yposition Zposition Zrotation Xrotation Yrotation
		JOINT RightKnee
		{
			OFFSET 0.000000 -0.000002 -16.919401
			CHANNELS 6 Xposition Yposition Zposition Zrotation Xrotation Yrotation
			JOINT RightAnkle
			{
				OFFSET 0.000000 -0.000002 -18.035900
				CHANNELS 6 Xposition Yposition Zposition Zrotation Xrotation Yrotation
				End Site
				{
					OFFSET 0.000000 -9.230099 0.000000
				}
			}
		}
	}
}
MOTION
Frames: 7
Frame Time: 0.041667
24.949200 38.678909 8.632694 4.681660 5.421280 7.656905 -0.128498 0.160396 6.566005 -4.540185 12.500990 2.513252 0.000000 -0.000001 3.554806 7.346020 -10.781092 0.095743 0.000001 -0.000005 8.267995 -50.026133 6.405173 16.632047 0.000005 -0.000007 2.173895 -4.721283 7.566219 -5.913961 2.057502 0.117597 5.946305 -11.407370 -1.375716 -7.458334 4.957705 0.000006 0.000003 -25.991262 0.885671 -132.958634 -0.000003 0.000006 -8.465500 -51.731347 -126.259831 -56.120738 0.000003 -0.000002 -14.594898 -34.130510 -57.453864 10.041465 -3.048502 -0.728805 6.604099 27.648302 -2.710394 -28.565929 -3.710294 0.000000 0.000001 -1.324069 -6.814219 77.919932 -0.000000 -0.000003 -10.450888 -46.879847 -17.497328 -3.025376 0.000004 0.000007 -12.539196 599.169001 4.658487 -112.803504 2.442596 -0.601401 -2.767507 131.799005 -2.679515 103.536864 -0.000001 -0.000002 -17.033707 -173.620144 47.562367 168.765737 -0.000002 0.000003 -19.318804 -135.360061 120.674799 392.169491 -3.126195 -0.601404 -2.283499 -134.346256 -25.088731 -91.038977 -0.000005 0.000002 -16.919395 298.876729 -51.784783 -220.196338 -0.000001 -0.000001 -18.035894 165.328199 53.567463 -179.979965
24.947401 38.661507 8.635101 4.659465 5.533111 7.646013 -0.128501 0.160400 6.566001 -4.540422 12.365872 2.553064 0.000002 -0.000001 3.554806 7.228665 -10.790043 0.067491 0.000003 0.000001 8.268006 -50.088086 6.260704 16.737628 0.000001 0.000007 2.173894 -4.689753 7.578798 -5.919791 2.057504 0.117601 5.946311 -11.446065 -1.316564 -7.313024 4.957695 0.000015 -0.000003 -25.835580 0.786701 -133.279558 0.000005 0.000003 -8.465495 -51.722250 -126.261484 -56.041607 0.000007 -0.000003 -14.594899 -34.203579 -57.455223 9.989066 -3.048502 -0.728798 6.604105 27.702175 -2.618138 -28.669791 -3.710293 0.000000 -0.000000 -1.007273 -6.544255 78.512020 -0.000002 0.000000 -10.450891 -46.589851 -16.603054 -2.950824 0.000005 0.000006 -12.539200 598.894373 4.770330 -112.198807 2.442592 -0.601404 -2.767503 131.844398 -2.642444 103.582933 -0.000000 -0.000008 -17.033707 -173.642410 47.541501 168.839148 -0.000002 0.000001 -19.318808 -135.379718 120.694511 392.138044 -3.126199 -0.601404 -2.283497 -134.387141 -24.992852 -91.112702 -0.000003 -0.000003 -16.919395 298.801105 -51.701711 -220.223358 0.000003 0.000000 -18.035898 165.155204 53.546696 -179.893249
24.945702 38.644600 8.637295 4.639995 5.645763 7.637475 -0.128500 0.160397 6.566009 -4.542778 12.218921 2.586162 0.000003 0.000000 3.554807 7.110629 -10.796809 0.039009 -0.000000 -0.000002 8.267998 -50.143537 6.113800 16.854842 -0.000001 0.000002 2.173899 -4.655371 7.590075 -5.924014 2.057501 0.117605 5.946309 -11.497565 -1.238535 -7.163012 4.957699 0.000004 0.000006 -25.649806 0.674413 -133.589785 0.000001 0.000004 -8.465498 -51.667847 -126.268491 -55.929783 0.000004 0.000002 -14.594900 -34.235165 -57.467449 10.023871 -3.048504 -0.728801 6.604103 27.793213 -2.500348 -28.784859 -3.710293 0.000003 0.000001 -0.709228 -6.283159 79.133144 0.000006 0.000005 -10.450894 -46.268678 -15.692418 -2.876237 0.000006 0.000006 -12.539199 598.577343 4.876167 -111.563941 2.442597 -0.601403 -2.767502 131.885161 -2.616164 103.628457 -0.000001 -0.000001 -17.033699 -173.653776 47.524125 168.911275 -0.000002 0.000000 -19.318808 -135.397039 120.715834 392.103812 -3.126194 -0.601403 -2.283500 -134.424311 -24.909162 -91.181092 -0.000006 -0.000005 -16.919395 298.720564 -51.628239 -220.245214 0.000002 0.000001 -18.035898 164.998082 53.523876 -179.804252
24.943899 38.628502 8.639198 4.619595 5.754177 7.632753 -0.128501 0.160398 6.566001 -4.542828 12.065189 2.611148 0.000000 0.000002 3.554807 6.991535 -10.800982 0.010380 0.000002 0.000012 8.268001 -50.190262 5.963606 16.980409 -0.000000 -0.000001 2.173906 -4.621427 7.599970 -5.925934 2.057505 0.117611 5.946310 -11.560038 -1.143617 -7.008267 4.957697 0.000008 -0.000004 -25.434163 0.549999 -133.887677 0.000001 -0.000001 -8.465501 -51.546277 -126.266825 -55.773300 0.000002 -0.000003 -14.594892 -34.213654 -57.488698 10.133713 -3.048504 -0.728790 6.604105 27.921743 -2.357695 -28.905818 -3.710295 -0.000002 0.000004 -0.432831 -6.040617 79.775380 0.000004 0.000001 -10.450893 -45.911183 -14.770011 -2.802835 0.000003 0.000003 -12.539198 598.318069 4.868144 -112.154875 2.442596 -0.601395 -2.767507 131.925719 -2.602155 103.671944 -0.000001 -0.000004 -17.033703 -173.655879 47.509433 168.981421 -0.000004 0.000002 -19.318804 -135.412175 120.738183 392.067939 -3.126196 -0.601405 -2.283496 -134.451973 -24.837618 -91.240310 -0.000004 0.000003 -16.919401 298.639421 -51.565237 -220.260692 -0.000000 -0.000002 -18.035896 164.859019 53.499441 -179.714011
24.941902 38.613098 8.640797 4.599013 5.858484 7.632085 -0.128500 0.160398 6.565999 -4.541083 11.905015 2.627386 0.000002 -0.000003 3.554804 6.735925 -10.814295 0.068289 0.000007 0.000001 8.268003 -50.086587 5.903323 17.047766 -0.000004 0.000003 2.173891 -4.591053 7.608453 -5.924580 2.057505 0.117603 5.946311 -11.499973 -1.000817 -6.956919 4.957691 0.000007 -0.000001 -25.191218 0.414761 -134.171157 -0.000001 0.000005 -8.465500 -51.356384 -126.256798 -55.574422 0.000005 -0.000003 -14.594898 -34.142490 -57.518539 10.312106 -3.048499 -0.728796 6.604104 28.213471 -2.234819 -29.131078 -3.710290 0.000002 -0.000005 -0.178987 -5.822595 80.428879 -0.000001 0.000004 -10.450890 -45.514267 -13.842423 -2.731156 0.000011 0.000003 -12.539198 597.919077 4.944117 -111.659352 2.442592 -0.601400 -2.767510 131.965661 -2.597910 103.714544 -0.000001 -0.000005 -17.033709 -173.649937 47.496521 169.048275 -0.000002 -0.000001 -19.318804 -135.424975 120.760777 392.031220 -3.126203 -0.601402 -2.283503 -134.471603 -24.774918 -91.290963 -0.000002 0.000002 -16.919399 298.561475 -51.512856 -220.269762 -0.000003 -0.000001 -18.035896 164.739149 53.473698 -179.623757
24.939697 38.598499 8.642197 4.434949 6.067319 7.654552 -0.128500 0.160396 6.566002 -4.407916 11.612899 2.620798 0.000003 0.000006 3.554808 6.749675 -10.801316 -0.046477 0.000002 -0.000002 8.268003 -50.248588 5.653073 17.242293 0.000001 0.000003 2.173895 -4.566645 7.615245 -5.919363 2.057503 0.117599 5.946308 -11.707436 -0.915549 -6.689250 4.957693 0.000006 0.000003 -24.926033 0.271250 -134.437999 0.000000 0.000008 -8.465492 -51.101918 -126.239135 -55.338493 0.000001 -0.000002 -14.594896 -34.028648 -57.554883 10.547217 -3.048502 -0.728801 6.604097 28.275803 -2.008943 -29.142235 -3.710297 -0.000001 0.000003 0.053972 -5.628529 81.083033 0.000000 -0.000002 -10.450891 -45.079272 -12.917615 -2.661040 0.000006 0.000002 -12.539198 597.476590 4.992850 -111.156015 2.442591 -0.601400 -2.767504 132.136594 -2.518314 103.853976 -0.000003 -0.000002 -17.033707 -173.638094 47.484390 169.110744 -0.000004 0.000001 -19.318802 -135.435452 120.783126 391.994665 -3.126194 -0.601406 -2.283497 -134.397441 -24.626346 -91.430319 -0.000003 -0.000001 -16.919395 298.490222 -51.470922 -220.272426 0.000002 -0.000001 -18.035896 164.638937 53.447275 -179.534965
24.937199 38.584801 8.643196 4.463824 6.124253 7.654654 -0.128498 0.160403 6.566001 -4.447965 11.486169 2.625921 -0.000001 0.000003 3.554802 6.757343 -10.785993 -0.159824 -0.000001 -0.000001 8.268001 -50.390619 5.402176 17.433349 0.000001 0.000003 2.173898 -4.549964 7.620113 -5.909994 2.057504 0.117604 5.946306 -11.912588 -0.823999 -6.425429 4.957697 0.000008 0.000002 -24.645440 0.122122 -134.685142 0.000003 0.000007 -8.465505 -50.791134 -126.215516 -55.073697 -0.000000 0.000001 -14.594896 -33.881478 -57.594286 10.823948 -3.048499 -0.728800 6.604099 28.362460 -1.771198 -29.143915 -3.710291 -0.000000 -0.000003 0.268602 -5.452719 81.725590 -0.000000 -0.000001 -10.450898 -44.611213 -12.005037 -2.592272 0.000003 0.000003 -12.539205 596.971921 5.046932 -110.648183 2.442598 -0.601401 -2.767505 132.131020 -2.552369 103.862254 -0.000001 -0.000010 -17.033701 -173.623067 47.471871 169.168199 0.000001 -0.000001 -19.318806 -135.443758 120.804709 391.959394 -3.126194 -0.601398 -2.283504 -134.433122 -24.605166 -91.432525 -0.000005 -0.000002 -16.919399 298.428614 -51.438865 -220.269216 -0.000001 -0.000001 -18.035896 164.557466 53.420723 -179.449027
